<mxfile host="65bd71144e">
    <diagram id="mOWihirFuIUlplB6iXX-" name="Страница 1">
        <mxGraphModel dx="1767" dy="662" grid="1" gridSize="10" guides="1" tooltips="1" connect="1" arrows="1" fold="1" page="1" pageScale="1" pageWidth="827" pageHeight="1169" math="0" shadow="0">
            <root>
                <mxCell id="0"/>
                <mxCell id="1" parent="0"/>
                <mxCell id="23" value="&lt;span style=&quot;font-family: &amp;#34;roboto&amp;#34; , &amp;#34;san francisco&amp;#34; , &amp;#34;helvetica neue&amp;#34; , &amp;#34;helvetica&amp;#34; , &amp;#34;arial&amp;#34; ; font-size: 15px&quot;&gt;&lt;font&gt;Напишите программу, которая на вход принимает число и выдаёт&lt;br&gt;является ли число чётным (делится ли оно на два без остатка).&lt;/font&gt;&lt;/span&gt;" style="text;html=1;align=center;verticalAlign=middle;resizable=0;points=[];autosize=1;strokeColor=none;fillColor=none;fontColor=#F0EBED;" vertex="1" parent="1">
                    <mxGeometry x="-670" y="10" width="480" height="40" as="geometry"/>
                </mxCell>
                <mxCell id="30" value="" style="edgeStyle=none;html=1;fontColor=#F0EBED;" edge="1" parent="1" source="24" target="25">
                    <mxGeometry relative="1" as="geometry"/>
                </mxCell>
                <mxCell id="24" value="Начало" style="ellipse;whiteSpace=wrap;html=1;labelBackgroundColor=none;fontColor=#F0EBED;" vertex="1" parent="1">
                    <mxGeometry x="-473" y="80" width="120" height="80" as="geometry"/>
                </mxCell>
                <mxCell id="31" value="" style="edgeStyle=none;html=1;fontColor=#F0EBED;startArrow=none;" edge="1" parent="1" source="37" target="26">
                    <mxGeometry relative="1" as="geometry"/>
                </mxCell>
                <mxCell id="39" style="edgeStyle=none;html=1;fontColor=#F0EBED;" edge="1" parent="1" source="25">
                    <mxGeometry relative="1" as="geometry">
                        <mxPoint x="-413" y="300" as="targetPoint"/>
                    </mxGeometry>
                </mxCell>
                <mxCell id="25" value="A" style="rounded=0;whiteSpace=wrap;html=1;labelBackgroundColor=none;fontColor=#F0EBED;" vertex="1" parent="1">
                    <mxGeometry x="-473" y="200" width="120" height="40" as="geometry"/>
                </mxCell>
                <mxCell id="32" style="edgeStyle=none;html=1;entryX=0.5;entryY=0;entryDx=0;entryDy=0;fontColor=#F0EBED;" edge="1" parent="1" source="26" target="27">
                    <mxGeometry relative="1" as="geometry">
                        <mxPoint x="-519.56" y="528" as="targetPoint"/>
                        <Array as="points">
                            <mxPoint x="-537" y="450"/>
                        </Array>
                    </mxGeometry>
                </mxCell>
                <mxCell id="34" style="edgeStyle=none;html=1;entryX=0.587;entryY=-0.042;entryDx=0;entryDy=0;entryPerimeter=0;fontColor=#F0EBED;" edge="1" parent="1" source="26" target="28">
                    <mxGeometry relative="1" as="geometry">
                        <Array as="points">
                            <mxPoint x="-280" y="450"/>
                        </Array>
                    </mxGeometry>
                </mxCell>
                <mxCell id="26" value="C = = 0" style="rhombus;whiteSpace=wrap;html=1;labelBackgroundColor=none;fontColor=#F0EBED;" vertex="1" parent="1">
                    <mxGeometry x="-477" y="410" width="138.5" height="80" as="geometry"/>
                </mxCell>
                <mxCell id="35" style="edgeStyle=none;html=1;entryX=0.5;entryY=0;entryDx=0;entryDy=0;fontColor=#F0EBED;" edge="1" parent="1" target="29">
                    <mxGeometry relative="1" as="geometry">
                        <mxPoint x="-530" y="580" as="sourcePoint"/>
                        <Array as="points">
                            <mxPoint x="-530" y="620"/>
                            <mxPoint x="-408" y="620"/>
                        </Array>
                    </mxGeometry>
                </mxCell>
                <mxCell id="27" value="Не четное" style="shape=document;whiteSpace=wrap;html=1;boundedLbl=1;labelBackgroundColor=none;fontColor=#F0EBED;" vertex="1" parent="1">
                    <mxGeometry x="-597" y="510" width="120" height="80" as="geometry"/>
                </mxCell>
                <mxCell id="36" style="edgeStyle=none;html=1;entryX=0.5;entryY=0;entryDx=0;entryDy=0;fontColor=#F0EBED;" edge="1" parent="1" source="28" target="29">
                    <mxGeometry relative="1" as="geometry">
                        <Array as="points">
                            <mxPoint x="-290" y="620"/>
                            <mxPoint x="-408" y="620"/>
                        </Array>
                    </mxGeometry>
                </mxCell>
                <mxCell id="28" value="Четное" style="shape=document;whiteSpace=wrap;html=1;boundedLbl=1;labelBackgroundColor=none;fontColor=#F0EBED;" vertex="1" parent="1">
                    <mxGeometry x="-350" y="500" width="120" height="80" as="geometry"/>
                </mxCell>
                <mxCell id="29" value="Конец" style="ellipse;whiteSpace=wrap;html=1;labelBackgroundColor=none;fontColor=#F0EBED;" vertex="1" parent="1">
                    <mxGeometry x="-467.75" y="680" width="120" height="80" as="geometry"/>
                </mxCell>
                <mxCell id="37" value="C = A / 2" style="shape=parallelogram;perimeter=parallelogramPerimeter;whiteSpace=wrap;html=1;fixedSize=1;labelBackgroundColor=none;fontColor=#F0EBED;" vertex="1" parent="1">
                    <mxGeometry x="-467.75" y="310" width="120" height="60" as="geometry"/>
                </mxCell>
            </root>
        </mxGraphModel>
    </diagram>
</mxfile>